<svg width="133" height="31" viewBox="0 0 133 31" fill="none" xmlns="http://www.w3.org/2000/svg">
<path opacity="0.6" d="M1.68752 22V20.308H5.21552V10.912H5.07152L2.15552 14.026L0.913516 12.91L4.11752 9.436H7.21352V20.308H10.2735V22H1.68752Z" fill="#061224"/>
<path opacity="0.6" d="M70.8415 22H62.3095V20.056L66.3235 16.474C66.9595 15.898 67.4455 15.352 67.7815 14.836C68.1295 14.308 68.3035 13.756 68.3035 13.18V12.946C68.3035 12.334 68.1175 11.854 67.7455 11.506C67.3855 11.158 66.8935 10.984 66.2695 10.984C65.9215 10.984 65.6155 11.038 65.3515 11.146C65.0995 11.242 64.8775 11.38 64.6855 11.56C64.4935 11.74 64.3315 11.95 64.1995 12.19C64.0795 12.43 63.9835 12.688 63.9115 12.964L62.1295 12.28C62.2615 11.884 62.4415 11.506 62.6695 11.146C62.8975 10.774 63.1855 10.444 63.5335 10.156C63.8815 9.868 64.2895 9.64 64.7575 9.472C65.2375 9.304 65.7955 9.22 66.4315 9.22C67.0675 9.22 67.6375 9.316 68.1415 9.508C68.6455 9.688 69.0655 9.946 69.4015 10.282C69.7495 10.606 70.0135 10.996 70.1935 11.452C70.3735 11.908 70.4635 12.406 70.4635 12.946C70.4635 13.45 70.3855 13.918 70.2295 14.35C70.0735 14.782 69.8575 15.19 69.5815 15.574C69.3055 15.958 68.9815 16.324 68.6095 16.672C68.2495 17.02 67.8655 17.374 67.4575 17.734L64.5055 20.272H70.8415V22Z" fill="#061224"/>
<path d="M124.593 15.136C125.633 15.136 126.401 14.92 126.897 14.488C127.393 14.04 127.641 13.472 127.641 12.784V12.616C127.641 11.848 127.401 11.264 126.921 10.864C126.441 10.448 125.793 10.24 124.977 10.24C124.177 10.24 123.497 10.424 122.937 10.792C122.377 11.144 121.905 11.64 121.521 12.28L119.721 10.72C119.977 10.352 120.265 10 120.585 9.664C120.905 9.328 121.281 9.04 121.713 8.8C122.145 8.544 122.633 8.344 123.177 8.2C123.721 8.04 124.345 7.96 125.049 7.96C125.833 7.96 126.561 8.056 127.233 8.248C127.905 8.44 128.481 8.728 128.961 9.112C129.441 9.48 129.817 9.936 130.089 10.48C130.361 11.008 130.497 11.608 130.497 12.28C130.497 12.808 130.409 13.288 130.233 13.72C130.073 14.152 129.841 14.536 129.537 14.872C129.249 15.192 128.905 15.456 128.505 15.664C128.121 15.872 127.713 16.024 127.281 16.12V16.24C127.761 16.336 128.209 16.496 128.625 16.72C129.057 16.928 129.433 17.208 129.753 17.56C130.073 17.896 130.321 18.304 130.497 18.784C130.689 19.248 130.785 19.784 130.785 20.392C130.785 21.128 130.641 21.8 130.353 22.408C130.065 23 129.657 23.512 129.129 23.944C128.617 24.376 127.993 24.712 127.257 24.952C126.521 25.176 125.705 25.288 124.809 25.288C124.025 25.288 123.337 25.2 122.745 25.024C122.153 24.864 121.625 24.648 121.161 24.376C120.713 24.088 120.313 23.768 119.961 23.416C119.625 23.048 119.329 22.672 119.073 22.288L121.065 20.728C121.273 21.064 121.489 21.376 121.713 21.664C121.953 21.936 122.217 22.176 122.505 22.384C122.809 22.576 123.145 22.728 123.513 22.84C123.897 22.952 124.329 23.008 124.809 23.008C125.833 23.008 126.617 22.768 127.161 22.288C127.705 21.792 127.977 21.112 127.977 20.248V20.08C127.977 19.216 127.689 18.56 127.113 18.112C126.537 17.664 125.721 17.44 124.665 17.44H122.889V15.136H124.593Z" fill="#061224" fill-opacity="0.9"/>
<path d="M45 15L29 15" stroke="#1064E5" stroke-width="1.5" stroke-linecap="round" stroke-linejoin="round"/>
<path d="M104 15L88 15" stroke="#1064E5" stroke-width="1.5" stroke-linecap="round" stroke-linejoin="round"/>
</svg>
