<svg width="131" height="31" viewBox="0 0 131 31" fill="none" xmlns="http://www.w3.org/2000/svg">
<path opacity="0.6" d="M1.68752 22V20.308H5.21552V10.912H5.07152L2.15552 14.026L0.913516 12.91L4.11752 9.436H7.21352V20.308H10.2735V22H1.68752Z" fill="#061224"/>
<path d="M72.2887 25H60.9127V22.408L66.2647 17.632C67.1127 16.864 67.7607 16.136 68.2087 15.448C68.6727 14.744 68.9047 14.008 68.9047 13.24V12.928C68.9047 12.112 68.6567 11.472 68.1607 11.008C67.6807 10.544 67.0247 10.312 66.1927 10.312C65.7287 10.312 65.3207 10.384 64.9687 10.528C64.6327 10.656 64.3367 10.84 64.0807 11.08C63.8247 11.32 63.6087 11.6 63.4327 11.92C63.2727 12.24 63.1447 12.584 63.0487 12.952L60.6727 12.04C60.8487 11.512 61.0887 11.008 61.3927 10.528C61.6967 10.032 62.0807 9.592 62.5447 9.208C63.0087 8.824 63.5527 8.52 64.1767 8.296C64.8167 8.072 65.5607 7.96 66.4087 7.96C67.2567 7.96 68.0167 8.088 68.6887 8.344C69.3607 8.584 69.9207 8.928 70.3687 9.376C70.8327 9.808 71.1847 10.328 71.4247 10.936C71.6647 11.544 71.7847 12.208 71.7847 12.928C71.7847 13.6 71.6807 14.224 71.4727 14.8C71.2647 15.376 70.9767 15.92 70.6087 16.432C70.2407 16.944 69.8087 17.432 69.3127 17.896C68.8327 18.36 68.3207 18.832 67.7767 19.312L63.8407 22.696H72.2887V25Z" fill="#061224" fill-opacity="0.9"/>
<path opacity="0.6" d="M124.82 14.602C125.6 14.602 126.176 14.44 126.548 14.116C126.92 13.78 127.106 13.354 127.106 12.838V12.712C127.106 12.136 126.926 11.698 126.566 11.398C126.206 11.086 125.72 10.93 125.108 10.93C124.508 10.93 123.998 11.068 123.578 11.344C123.158 11.608 122.804 11.98 122.516 12.46L121.166 11.29C121.358 11.014 121.574 10.75 121.814 10.498C122.054 10.246 122.336 10.03 122.66 9.85C122.984 9.658 123.35 9.508 123.758 9.4C124.166 9.28 124.634 9.22 125.162 9.22C125.75 9.22 126.296 9.292 126.8 9.436C127.304 9.58 127.736 9.796 128.096 10.084C128.456 10.36 128.738 10.702 128.942 11.11C129.146 11.506 129.248 11.956 129.248 12.46C129.248 12.856 129.182 13.216 129.05 13.54C128.93 13.864 128.756 14.152 128.528 14.404C128.312 14.644 128.054 14.842 127.754 14.998C127.466 15.154 127.16 15.268 126.836 15.34V15.43C127.196 15.502 127.532 15.622 127.844 15.79C128.168 15.946 128.45 16.156 128.69 16.42C128.93 16.672 129.116 16.978 129.248 17.338C129.392 17.686 129.464 18.088 129.464 18.544C129.464 19.096 129.356 19.6 129.14 20.056C128.924 20.5 128.618 20.884 128.222 21.208C127.838 21.532 127.37 21.784 126.818 21.964C126.266 22.132 125.654 22.216 124.982 22.216C124.394 22.216 123.878 22.15 123.434 22.018C122.99 21.898 122.594 21.736 122.246 21.532C121.91 21.316 121.61 21.076 121.346 20.812C121.094 20.536 120.872 20.254 120.68 19.966L122.174 18.796C122.33 19.048 122.492 19.282 122.66 19.498C122.84 19.702 123.038 19.882 123.254 20.038C123.482 20.182 123.734 20.296 124.01 20.38C124.298 20.464 124.622 20.506 124.982 20.506C125.75 20.506 126.338 20.326 126.746 19.966C127.154 19.594 127.358 19.084 127.358 18.436V18.31C127.358 17.662 127.142 17.17 126.71 16.834C126.278 16.498 125.666 16.33 124.874 16.33H123.542V14.602H124.82Z" fill="#061224"/>
<path d="M45 15L29 15" stroke="#1064E5" stroke-width="1.5" stroke-linecap="round" stroke-linejoin="round"/>
<path d="M104 15L88 15" stroke="#1064E5" stroke-width="1.5" stroke-linecap="round" stroke-linejoin="round"/>
</svg>
